<svg height="496pt" viewBox="0 0 496.232 496" width="496pt" xmlns="http://www.w3.org/2000/svg"><path d="m248.230469 40.117188v48h-160v-80h24zm0 0" fill="#fcd770"/><path d="m248.230469 88.117188h-192l-48 169.519531 48 230.480469h48v-96c0-8.800782 7.203125-16 16-16h64c8.800781 0 16 7.199218 16 16v96h48v-288h16l15.203125 3.4375.796875-3.4375v-112zm0 0" fill="#e6e9ed"/><path d="m200.230469 392.117188v96h-96v-96c0-8.800782 7.203125-16 16-16h64c8.800781 0 16 7.199218 16 16zm0 0" fill="#cf9e76"/><path d="m408.230469 72.117188v64h-80v-48l56-16zm0 0" fill="#969faa"/><path d="m424.230469 136.117188v96l-.957031 4.160156-111.679688-25.363282.636719-2.796874v-72zm0 0" fill="#e6e9ed"/><path d="m440.230469 240.117188v248h-192v-288h16l15.203125 3.4375 32.160156 7.359374 111.679688 25.363282zm0 0" fill="#fcd770"/><g fill="#69d6f4"><path d="m216.230469 136.117188h-128v32h160v-32zm0 0"/><path d="m184.230469 216.117188h-128v32h192v-32zm0 0"/><path d="m184.230469 296.117188h-128v32h192v-32zm0 0"/><path d="m344.230469 392.117188h32v32h-32zm0 0"/><path d="m376.230469 392.117188h32v32h-32zm0 0"/><path d="m280.230469 392.117188h64v32h-64zm0 0"/><path d="m344.230469 328.117188h32v32h-32zm0 0"/><path d="m376.230469 328.117188h32v32h-32zm0 0"/><path d="m280.230469 328.117188h64v32h-64zm0 0"/></g><path d="m448.230469 233.730469-16-3.636719v-101.976562h-16v-64h-32l-64 17.96875v46.03125h-16v72.886718l-16-3.640625v-117.246093h-32v-46.335938l-142.167969-33.457031-33.832031-.207031v80h-30.046875l-50.183594 177.238281 46.398438 222.761719h-14.167969v16h432v-16h-16zm-384 86.386719v-16h16v16zm32-16h16v16h-16zm32 0h16v16h-16zm32 0h16v16h-16zm32 0h16v16h-16zm32 0h16v16h-16zm-160-64v-16h16v16zm32-16h16v16h-16zm32 0h16v16h-16zm32 0h16v16h-16zm32 0h16v16h-16zm32 0h16v16h-16zm208 22.382812v233.617188h-176v-272h7.105469zm-96-152.351562 49.121093-14.03125h14.878907v48h-64zm-16 49.96875h96v82.34375l-96-21.816407zm-224-128h15.074219l128.925781 30.335937v33.664063h-144zm16 464v-88c0-4.417969 3.585937-8 8-8h64c4.417969 0 8 3.582031 8 8v88zm72-112h-64c-13.230469 0-24 10.765624-24 24v88h-33.496094l-46.269531-222.175782 45.816406-161.824218h209.949219v97.613281l-6.222657-1.414063-25.777343-.199218v16h-192v48h192v32h-192v48h192v144h-32v-88c0-13.234376-10.765625-24-24-24zm0 0"/><path d="m256.230469 128.117188h-176v48h176zm-96 16h16v16h-16zm-16 16h-16v-16h16zm48-16h16v16h-16zm-96 0h16v16h-16zm144 16h-16v-16h16zm0 0"/><path d="m416.230469 384.117188h-144v48h144zm-48 16v16h-16v-16zm-32 0v16h-16v-16zm-48 0h16v16h-16zm112 16h-16v-16h16zm0 0"/><path d="m416.230469 320.117188h-144v48h144zm-48 16v16h-16v-16zm-32 0v16h-16v-16zm-48 0h16v16h-16zm112 16h-16v-16h16zm0 0"/><path d="m480.230469 480.117188h16v16h-16zm0 0"/><path d="m.230469 480.117188h16v16h-16zm0 0"/></svg>