<svg xmlns="http://www.w3.org/2000/svg" width="96" height="96" viewBox="0 0 96 96">
    <g fill="none" fill-rule="evenodd">
        <path fill="#C3C3C3" d="M0 96c4.688-5.93 13.283-18.901 25.785-38.914.32-6.016.32-10.463 0-13.342-.48-4.318-2.976-5.085-2.344-7.782.42-1.798 1.983-2.169 4.688-1.112.155-1.793.155-4.387 0-7.783-.234-5.094-3.516-16.677-1.172-17.789 1.562-.741 2.987 1.091 4.274 5.497 1.089 3.057 2.172 5.301 3.25 6.733.506.672 1.543-2.917 1.918-1.406.15.605 3.582 11.244 4.622 13.325.694 1.387.694-2.586 0-11.919 1.514-1.67 2.686-.928 3.516 2.224.83 3.151 1.221 7.228 1.172 12.23.388 9.161.388 15.09 0 17.789-.388 2.698-1.95 5.292-4.688 7.783L28.129 96H0z"/>
        <path fill="#A1A1A1" d="M96 96L75.136 64.243c-.27-4.91-.27-8.539 0-10.888.406-3.524 2.523-4.15 1.987-6.352-.357-1.467-2.015-1.103-4.974 1.093.535-2.796.868-5.58 1-8.352.198-4.157 2.98-13.61.994-14.517-1.325-.605-2.65.333-3.974 2.815-1.073-1.836-2.067-2.169-2.98-1-.43.548-.803 2.438-1.121 3.671-.128.494-1.972-2.698-2.854-1-.588 1.132-.919 2.964-.993 5.495-1.283-1.362-2.277-.758-2.98 1.814-.705 2.572-1.036 5.9-.994 9.981-.33 7.477-.33 12.316 0 14.518.328 2.202 1.653 4.319 3.974 6.351L73.149 96H96z"/>
        <path fill="#A1A1A1" d="M96 96L75.089 63.854c-.271-4.97-.271-8.643 0-11.022.407-3.567 2.528-4.2 1.991-6.429-.357-1.485-1.685-1.791-3.983-.918-1.461 1.485-2.586 4.1-3.373 7.843C69.34 55.155 65 57.37 65 60.065c0 1.123 0 2.573 2.362 7.463 1.575 3.26 5.118 12.75 10.63 28.472H96z"/>
        <path fill="#C3C3C3" d="M4 96c14.299-20.754 21.448-33.355 21.448-37.802 0-4.447.794-12.23 2.383-23.348.158-1.793.158-4.387 0-7.783-.237-5.094-3.575-16.677-1.192-17.789 1.59-.741 3.178.333 4.767 3.224 1.287-2.099 2.478-2.432 3.574-1 .515.672 1.366 2.763 1.748 4.273.152.605 1.96-2.08 3.019 0 .705 1.387 1.102 3.298 1.191 5.733 1.539-1.67 2.73-.928 3.575 2.224.844 3.151 1.241 7.228 1.191 12.23.395 9.161.395 15.09 0 17.789-.394 2.698-1.983 5.292-4.766 7.783L27.831 96H4z"/>
    </g>
</svg>
