<?xml version="1.0" encoding="iso-8859-1"?>
<!-- Generator: Adobe Illustrator 19.0.0, SVG Export Plug-In . SVG Version: 6.00 Build 0)  -->
<svg version="1.1" id="Layer_1" xmlns="http://www.w3.org/2000/svg" xmlns:xlink="http://www.w3.org/1999/xlink" x="0px" y="0px"
	 viewBox="0 0 368 368" style="enable-background:new 0 0 368 368;" xml:space="preserve">
<path style="fill:#80D440;" d="M328,24c17.6,0,32,14.4,32,32v256c0,17.6-14.4,32-32,32H40c-17.6,0-32-14.4-32-32V56
	c0-17.6,14.4-32,32-32H328z"/>
<path style="fill:#6EA62B;" d="M328,352H40c-22,0-40-18-40-40V56c0-22,18-40,40-40h288c22,0,40,18,40,40v256
	C368,334,350,352,328,352z M40,32c-13.2,0-24,10.8-24,24v256c0,13.2,10.8,24,24,24h288c13.2,0,24-10.8,24-24V56
	c0-13.2-10.8-24-24-24H40z"/>
<g>
	<path style="fill:#FFFFFF;" d="M312,159.6c-4.4,0-8-3.6-8-8V112h-39.6c-4.4,0-8-3.6-8-8s3.6-8,8-8H312c4.4,0,8,3.6,8,8v47.6
		C320,156,316.4,159.6,312,159.6z"/>
	<path style="fill:#FFFFFF;" d="M42,264c-2,0-4-0.8-5.6-2.4c-3.2-3.2-3.2-8,0-11.2l8-8c3.2-3.2,8-3.2,11.2,0c3.2,3.2,3.2,8,0,11.2
		l-8,8C46,263.2,44,264,42,264z"/>
	<path style="fill:#FFFFFF;" d="M69.2,236.8c-2,0-4-0.8-5.6-2.4c-3.2-3.2-3.2-8,0-11.2l39.2-39.2c6-6,16.4-6,22.4,0l22.8,22.8
		l67.2-67.2c6.4-6.4,16-6.4,22.4,0l13.6,13.2l48-48c3.2-3.2,8-3.2,11.2,0s3.2,8,0,11.2l-53.6,53.6c-3.2,3.2-8,3.2-11.2,0l-19.2-18.8
		l-72.8,72.8c-3.2,3.2-8,3.2-11.2,0L114,195.2l-39.2,39.2C73.2,236,71.2,236.8,69.2,236.8z"/>
</g>
<g>
</g>
<g>
</g>
<g>
</g>
<g>
</g>
<g>
</g>
<g>
</g>
<g>
</g>
<g>
</g>
<g>
</g>
<g>
</g>
<g>
</g>
<g>
</g>
<g>
</g>
<g>
</g>
<g>
</g>
</svg>
