<svg height="453pt" viewBox="0 -2 453.7181 453" width="453pt" xmlns="http://www.w3.org/2000/svg"><path d="m64.820312 22.761719c-1.949218 23.128906-26.046874 26.78125-26.046874 26.78125 20.691406.972656 25.847656 28.117187 25.847656 28.117187.441406-19.355468 26.640625-28.40625 26.640625-28.40625-19.625-1.171875-26.441407-26.492187-26.441407-26.492187zm0 0" fill="#d7e057"/><path d="m91.441406 46.257812c-17.207031-1.027343-23.664062-24.046874-23.726562-24.277343-.378906-1.40625-1.699219-2.324219-3.167969-2.203125-1.449219.128906-2.59375 1.28125-2.714844 2.730468-1.71875 20.433594-22.628906 23.929688-23.511719 24.066407-1.523437.230469-2.625 1.582031-2.542968 3.125.078125 1.539062 1.3125 2.765625 2.855468 2.839843 18.054688.851563 22.996094 25.4375 23.042969 25.6875.273438 1.421876 1.519531 2.433594 2.945313 2.433594.082031 0 .167968-.003906.25-.011718 1.527344-.125 2.714844-1.386719 2.75-2.917969.390625-17.015625 24.382812-25.554688 24.628906-25.636719 1.351562-.46875 2.183594-1.828125 1.984375-3.246094-.199219-1.421875-1.363281-2.503906-2.792969-2.589844zm-27.132812 20.695313c-2.710938-6.261719-7.417969-13.816406-15.171875-17.753906 5.863281-2.808594 12.816406-7.824219 16.402343-16.546875 3.101563 6.144531 8.402344 13.761718 16.667969 17.445312-6.011719 3.28125-13.84375 8.8125-17.898437 16.855469zm0 0" fill="#3a312a"/><path d="m21.421875 56.722656c-1.378906 16.359375-18.425781 18.941406-18.425781 18.941406 14.636718.691407 18.285156 19.890626 18.285156 19.890626.3125-13.691407 18.84375-20.089844 18.84375-20.089844-13.882812-.832032-18.703125-18.742188-18.703125-18.742188zm0 0" fill="#d7e057"/><path d="m40.304688 72.46875c-11.53125-.691406-15.941407-16.371094-15.984376-16.527344-.378906-1.40625-1.71875-2.328125-3.164062-2.207031-1.453125.132813-2.601562 1.285156-2.722656 2.738281-1.15625 13.742188-15.292969 16.132813-15.882813 16.226563-1.527343.230469-2.6249998 1.582031-2.54687475 3.121093.08203125 1.542969 1.31249975 2.769532 2.85546875 2.84375 12.070313.566407 15.449219 17.289063 15.480469 17.453126.269531 1.421874 1.515625 2.4375 2.945312 2.4375.082032 0 .164063-.003907.25-.007813 1.527344-.128906 2.714844-1.390625 2.75-2.921875.261719-11.417969 16.664063-17.269531 16.824219-17.324219 1.351563-.46875 2.1875-1.828125 1.992187-3.246093-.199218-1.417969-1.367187-2.5-2.796874-2.585938zm-19.167969 13.589844c-1.847657-3.773438-4.679688-7.894532-8.894531-10.5625 3.710937-2.082032 7.394531-5.257813 9.742187-9.832032 2.113281 3.746094 5.308594 7.910157 9.882813 10.449219-3.699219 2.203125-7.980469 5.480469-10.730469 9.945313zm0 0" fill="#3a312a"/><path d="m21.421875 3.40625c-1.378906 16.359375-18.425781 18.941406-18.425781 18.941406 14.636718.691406 18.285156 19.890625 18.285156 19.890625.3125-13.691406 18.84375-20.089843 18.84375-20.089843-13.882812-.832032-18.703125-18.742188-18.703125-18.742188zm0 0" fill="#d7e057"/><path d="m40.304688 19.152344c-11.53125-.6875-15.941407-16.371094-15.984376-16.527344-.378906-1.40625-1.71875-2.328125-3.164062-2.203125-1.453125.128906-2.601562 1.285156-2.722656 2.734375-1.15625 13.742188-15.292969 16.136719-15.882813 16.230469-1.527343.230469-2.6249998 1.578125-2.54687475 3.121093.08203125 1.539063 1.31249975 2.769532 2.85546875 2.839844 12.070313.570313 15.449219 17.289063 15.480469 17.453125.269531 1.425781 1.515625 2.441407 2.945312 2.441407.082032 0 .164063-.003907.25-.011719 1.527344-.125 2.714844-1.386719 2.75-2.921875.261719-11.417969 16.664063-17.265625 16.824219-17.324219 1.351563-.46875 2.1875-1.824219 1.992187-3.242187-.199218-1.421876-1.367187-2.503907-2.796874-2.589844zm-19.167969 13.589844c-1.847657-3.769532-4.679688-7.894532-8.894531-10.558594 3.710937-2.082032 7.394531-5.261719 9.742187-9.835938 2.113281 3.75 5.308594 7.910156 9.882813 10.449219-3.699219 2.203125-7.980469 5.480469-10.730469 9.945313zm0 0" fill="#3a312a"/><path d="m227.21875 117.359375-223.5 55.441406v274.558594h447v-274.558594zm0 0" fill="#d7e057"/><path d="m451.441406 169.886719-223.5-55.4375c-.476562-.121094-.96875-.121094-1.449218 0l-223.5 55.4375c-1.335938.332031-2.277344 1.535156-2.277344 2.914062v90.433594c0 1.65625 1.34375 3 3 3s3-1.34375 3-3v-88.085937l220.503906-54.699219 220.5 54.695312v269.214844h-441v-155.484375c0-1.660156-1.34375-3-3-3s-3 1.339844-3 3v158.484375c0 1.65625 1.34375 3 3 3h447c1.65625 0 3-1.34375 3-3v-274.558594c0-1.378906-.941406-2.582031-2.277344-2.914062zm0 0" fill="#3a312a"/><path d="m227.21875 3.359375-107 74.59375v369.40625h214v-369.40625zm0 0" fill="#f16c7a"/><path d="m335.933594 75.488281-107-74.589843c-1.035156-.71875-2.398438-.71875-3.429688 0l-107 74.589843c-.804687.5625-1.285156 1.480469-1.285156 2.464844v121.671875c0 1.660156 1.34375 3 3 3s3-1.339844 3-3v-120.109375l104-72.5 104 72.5v364.84375h-208v-210.234375c0-1.660156-1.34375-3-3-3s-3 1.339844-3 3v213.234375c0 1.65625 1.34375 3 3 3h214c1.65625 0 3-1.34375 3-3v-369.40625c0-.984375-.480469-1.902344-1.285156-2.464844zm0 0" fill="#3a312a"/><path d="m191.738281 193.359375h-25.691406c-6.6875 0-12.109375 5.421875-12.109375 12.109375v25.695312c0 6.6875 5.421875 12.109376 12.109375 12.109376h25.691406c6.691407 0 12.113281-5.421876 12.113281-12.109376v-25.695312c0-6.6875-5.421874-12.109375-12.113281-12.109375zm0 0" fill="#8ac6dd"/><path d="m191.738281 190.359375h-25.691406c-8.332031 0-15.109375 6.777344-15.109375 15.109375v25.695312c0 8.332032 6.777344 15.109376 15.109375 15.109376h25.691406c8.332031 0 15.113281-6.777344 15.113281-15.109376v-25.695312c-.003906-8.332031-6.78125-15.109375-15.113281-15.109375zm9.109375 40.804687c0 5.023438-4.085937 9.109376-9.109375 9.109376h-25.691406c-5.023437 0-9.109375-4.085938-9.109375-9.109376v-25.695312c0-5.019531 4.085938-9.109375 9.109375-9.109375h25.691406c5.027344 0 9.113281 4.089844 9.113281 9.109375v25.695312zm0 0" fill="#3a312a"/><path d="m191.738281 271.773438h-25.691406c-6.6875 0-12.109375 5.421874-12.109375 12.109374v25.695313c0 6.6875 5.421875 12.109375 12.109375 12.109375h25.691406c6.691407 0 12.113281-5.421875 12.113281-12.109375v-25.695313c0-6.6875-5.421874-12.109374-12.113281-12.109374zm0 0" fill="#8ac6dd"/><path d="m191.738281 268.773438h-25.691406c-8.332031 0-15.109375 6.777343-15.109375 15.109374v25.695313c0 8.328125 6.777344 15.109375 15.109375 15.109375h25.691406c8.332031 0 15.113281-6.777344 15.113281-15.109375v-25.695313c-.003906-8.332031-6.78125-15.109374-15.113281-15.109374zm9.109375 40.804687c0 5.019531-4.085937 9.109375-9.109375 9.109375h-25.691406c-5.023437 0-9.109375-4.089844-9.109375-9.109375v-25.695313c0-5.019531 4.085938-9.109374 9.109375-9.109374h25.691406c5.027344 0 9.113281 4.089843 9.113281 9.109374v25.695313zm0 0" fill="#3a312a"/><path d="m288.390625 193.359375h-25.695313c-6.6875 0-12.109374 5.421875-12.109374 12.109375v25.695312c0 6.6875 5.421874 12.109376 12.109374 12.109376h25.695313c6.6875 0 12.109375-5.421876 12.109375-12.109376v-25.695312c0-6.6875-5.421875-12.109375-12.109375-12.109375zm0 0" fill="#8ac6dd"/><path d="m288.390625 190.359375h-25.695313c-8.332031 0-15.109374 6.777344-15.109374 15.109375v25.695312c0 8.332032 6.777343 15.109376 15.109374 15.109376h25.695313c8.332031 0 15.109375-6.777344 15.109375-15.109376v-25.695312c0-8.332031-6.777344-15.109375-15.109375-15.109375zm9.109375 40.804687c0 5.023438-4.085938 9.109376-9.109375 9.109376h-25.695313c-5.023437 0-9.109374-4.085938-9.109374-9.109376v-25.695312c0-5.019531 4.085937-9.109375 9.109374-9.109375h25.695313c5.023437 0 9.109375 4.089844 9.109375 9.109375zm0 0" fill="#3a312a"/><path d="m288.390625 271.773438h-25.695313c-6.6875 0-12.109374 5.421874-12.109374 12.109374v25.695313c0 6.6875 5.421874 12.109375 12.109374 12.109375h25.695313c6.6875 0 12.109375-5.421875 12.109375-12.109375v-25.695313c0-6.6875-5.421875-12.109374-12.109375-12.109374zm0 0" fill="#8ac6dd"/><path d="m288.390625 268.773438h-25.695313c-8.332031 0-15.109374 6.777343-15.109374 15.109374v25.695313c0 8.328125 6.777343 15.109375 15.109374 15.109375h25.695313c8.332031 0 15.109375-6.777344 15.109375-15.109375v-25.695313c0-8.332031-6.777344-15.109374-15.109375-15.109374zm9.109375 40.804687c0 5.019531-4.085938 9.109375-9.109375 9.109375h-25.695313c-5.023437 0-9.109374-4.089844-9.109374-9.109375v-25.695313c0-5.019531 4.085937-9.109374 9.109374-9.109374h25.695313c5.023437 0 9.109375 4.089843 9.109375 9.109374zm0 0" fill="#3a312a"/><path d="m75.089844 207.359375h-25.695313c-6.6875 0-12.109375 5.421875-12.109375 12.109375v25.695312c0 6.6875 5.421875 12.109376 12.109375 12.109376h25.695313c6.6875 0 12.109375-5.421876 12.109375-12.109376v-25.695312c0-6.6875-5.421875-12.109375-12.109375-12.109375zm0 0" fill="#8ac6dd"/><path d="m75.089844 204.359375h-25.695313c-8.332031 0-15.109375 6.777344-15.109375 15.109375v25.695312c0 8.332032 6.777344 15.109376 15.109375 15.109376h25.695313c8.332031 0 15.109375-6.777344 15.109375-15.109376v-25.695312c0-8.332031-6.777344-15.109375-15.109375-15.109375zm9.109375 40.804687c0 5.023438-4.085938 9.109376-9.109375 9.109376h-25.695313c-5.023437 0-9.109375-4.085938-9.109375-9.109376v-25.695312c0-5.019531 4.085938-9.109375 9.109375-9.109375h25.695313c5.023437 0 9.109375 4.089844 9.109375 9.109375zm0 0" fill="#3a312a"/><path d="m75.089844 285.773438h-25.695313c-6.6875 0-12.109375 5.421874-12.109375 12.109374v25.695313c0 6.6875 5.421875 12.109375 12.109375 12.109375h25.695313c6.6875 0 12.109375-5.421875 12.109375-12.109375v-25.695313c0-6.6875-5.421875-12.109374-12.109375-12.109374zm0 0" fill="#8ac6dd"/><path d="m75.089844 282.773438h-25.695313c-8.332031 0-15.109375 6.777343-15.109375 15.109374v25.695313c0 8.328125 6.777344 15.109375 15.109375 15.109375h25.695313c8.332031 0 15.109375-6.777344 15.109375-15.109375v-25.695313c0-8.332031-6.777344-15.109374-15.109375-15.109374zm9.109375 40.804687c0 5.019531-4.085938 9.109375-9.109375 9.109375h-25.695313c-5.023437 0-9.109375-4.089844-9.109375-9.109375v-25.695313c0-5.019531 4.085938-9.109374 9.109375-9.109374h25.695313c5.023437 0 9.109375 4.089843 9.109375 9.109374zm0 0" fill="#3a312a"/><path d="m405.039062 207.359375h-25.691406c-6.691406 0-12.113281 5.421875-12.113281 12.109375v25.695312c0 6.6875 5.421875 12.109376 12.113281 12.109376h25.691406c6.6875 0 12.109376-5.421876 12.109376-12.109376v-25.695312c0-6.6875-5.421876-12.109375-12.109376-12.109375zm0 0" fill="#8ac6dd"/><path d="m405.039062 204.359375h-25.691406c-8.332031 0-15.113281 6.777344-15.113281 15.109375v25.695312c0 8.332032 6.78125 15.109376 15.113281 15.109376h25.691406c8.332032 0 15.109376-6.777344 15.109376-15.109376v-25.695312c0-8.332031-6.777344-15.109375-15.109376-15.109375zm9.109376 40.804687c0 5.023438-4.085938 9.109376-9.109376 9.109376h-25.691406c-5.027344 0-9.113281-4.085938-9.113281-9.109376v-25.695312c0-5.019531 4.085937-9.109375 9.113281-9.109375h25.691406c5.023438 0 9.109376 4.089844 9.109376 9.109375zm0 0" fill="#3a312a"/><path d="m405.039062 285.773438h-25.691406c-6.691406 0-12.113281 5.421874-12.113281 12.109374v25.695313c0 6.6875 5.421875 12.109375 12.113281 12.109375h25.691406c6.6875 0 12.109376-5.421875 12.109376-12.109375v-25.695313c0-6.6875-5.421876-12.109374-12.109376-12.109374zm0 0" fill="#8ac6dd"/><path d="m405.039062 282.773438h-25.691406c-8.332031 0-15.113281 6.777343-15.113281 15.109374v25.695313c0 8.328125 6.78125 15.109375 15.113281 15.109375h25.691406c8.332032 0 15.109376-6.777344 15.109376-15.109375v-25.695313c0-8.332031-6.777344-15.109374-15.109376-15.109374zm9.109376 40.804687c0 5.019531-4.085938 9.109375-9.109376 9.109375h-25.691406c-5.027344 0-9.113281-4.089844-9.113281-9.109375v-25.695313c0-5.019531 4.085937-9.109374 9.113281-9.109374h25.691406c5.023438 0 9.109376 4.089843 9.109376 9.109374zm0 0" fill="#3a312a"/><path d="m280.121094 343.359375h-105.808594c-10.339844 0-18.71875 8.382813-18.71875 18.71875v85.28125h143.25v-85.28125c0-10.335937-8.382812-18.71875-18.722656-18.71875zm0 0" fill="#8ac6dd"/><path d="m280.121094 340.359375h-105.808594c-11.972656 0-21.71875 9.746094-21.71875 21.71875v85.28125c0 1.65625 1.34375 3 3 3h143.25c1.65625 0 3-1.34375 3-3v-85.28125c0-11.972656-9.746094-21.71875-21.722656-21.71875zm15.722656 104h-137.25v-82.28125c0-8.667969 7.050781-15.71875 15.71875-15.71875h105.808594c8.667968 0 15.722656 7.050781 15.722656 15.71875zm0 0" fill="#3a312a"/><path d="m287.351562 89.414062c-6.460937-17.691406-20.496093-31.726562-38.1875-38.183593-6.84375-2.503907-14.238281-3.871094-21.945312-3.871094s-15.105469 1.367187-21.945312 3.867187c-17.691407 6.460938-31.730469 20.496094-38.183594 38.1875-2.503906 6.839844-3.871094 14.238282-3.871094 21.945313s1.367188 15.105469 3.867188 21.945313c6.457031 17.691406 20.496093 31.730468 38.1875 38.1875 6.839843 2.5 14.234374 3.867187 21.941406 3.867187 7.710937 0 15.105468-1.367187 21.945312-3.867187 17.691406-6.457032 31.730469-20.496094 38.1875-38.1875 2.503906-6.839844 3.871094-14.238282 3.871094-21.945313s-1.367188-15.105469-3.867188-21.945313zm0 0" fill="#fce8cb"/><path d="m290.167969 88.386719c-6.792969-18.613281-21.363281-33.183594-39.972657-39.976563-14.695312-5.375-31.257812-5.371094-45.953124 0-18.609376 6.792969-33.179688 21.367188-39.96875 39.976563-2.691407 7.34375-4.054688 15.074219-4.054688 22.972656s1.363281 15.628906 4.050781 22.972656c6.789063 18.613281 21.363281 33.183594 39.96875 39.976563 7.351563 2.6875 15.078125 4.050781 22.976563 4.050781 7.898437 0 15.628906-1.363281 22.976562-4.050781 18.609375-6.792969 33.179688-21.363282 39.96875-39.972656 2.695313-7.347657 4.058594-15.078126 4.058594-22.976563s-1.363281-15.628906-4.050781-22.972656zm-5.636719 43.890625c-6.183594 16.945312-19.453125 30.210937-36.398438 36.398437-13.367187 4.890625-28.457031 4.890625-41.832031-.003906-16.945312-6.183594-30.210937-19.449219-36.398437-36.398437-2.445313-6.683594-3.683594-13.71875-3.683594-20.914063s1.238281-14.230469 3.6875-20.914063c6.1875-16.949218 19.449219-30.214843 36.398438-36.398437 6.683593-2.449219 13.71875-3.6875 20.914062-3.6875 7.191406 0 14.230469 1.238281 20.914062 3.6875 16.949219 6.183594 30.214844 19.449219 36.398438 36.398437 2.445312 6.683594 3.6875 13.71875 3.6875 20.914063s-1.242188 14.230469-3.6875 20.917969zm0 0" fill="#3a312a"/><path d="m227.382812 109.136719c-13.203124 0-23.910156 12.996093-23.910156 23.957031s10.707032 12.871094 23.910156 12.871094c13.203126 0 23.90625-1.910156 23.90625-12.871094s-10.703124-23.957031-23.90625-23.957031zm0 0" fill="#87796f"/><path d="m227.382812 106.136719c-15.15625 0-26.910156 14.492187-26.910156 26.957031 0 15.875 18.859375 15.875 26.910156 15.875 8.050782 0 26.90625 0 26.90625-15.875 0-12.464844-11.753906-26.957031-26.90625-26.957031zm0 36.832031c-17.355468 0-20.910156-3.949219-20.910156-9.875 0-9.433594 9.648438-20.957031 20.910156-20.957031 11.257813 0 20.90625 11.523437 20.90625 20.957031 0 5.929688-3.554687 9.875-20.90625 9.875zm0 0" fill="#3a312a"/><path d="m227.382812 76.75c-5.171874 0-9.363281 5.382812-9.363281 12.015625 0 6.636719 4.191407 12.019531 9.363281 12.019531 5.171876 0 9.363282-5.382812 9.363282-12.019531 0-6.632813-4.191406-12.015625-9.363282-12.015625zm0 0" fill="#87796f"/><path d="m227.382812 73.75c-6.816406 0-12.363281 6.738281-12.363281 15.015625 0 8.28125 5.542969 15.019531 12.363281 15.019531 6.816407 0 12.363282-6.738281 12.363282-15.019531 0-8.277344-5.546875-15.015625-12.363282-15.015625zm0 24.035156c-3.449218 0-6.363281-4.128906-6.363281-9.019531 0-4.886719 2.914063-9.015625 6.363281-9.015625 3.449219 0 6.363282 4.128906 6.363282 9.015625 0 4.890625-2.914063 9.019531-6.363282 9.019531zm0 0" fill="#3a312a"/><path d="m209.011719 93.910156c-3.101563-5.867187-9.320313-8.664062-13.890625-6.25-4.574219 2.417969-5.765625 9.132813-2.667969 15 3.101563 5.867188 9.320313 8.664063 13.894531 6.25 4.570313-2.417968 5.765625-9.128906 2.664063-15zm0 0" fill="#87796f"/><path d="m211.667969 92.507812c-3.871094-7.316406-11.914063-10.6875-17.949219-7.5-3.042969 1.613282-5.09375 4.570313-5.761719 8.332032-.621093 3.488281.035157 7.296875 1.84375 10.722656 1.808594 3.425781 4.585938 6.109375 7.816407 7.566406 1.71875.773438 3.464843 1.160156 5.160156 1.160156 1.742187 0 3.425781-.410156 4.96875-1.226562 3.046875-1.609375 5.09375-4.566406 5.765625-8.332031.617187-3.488281-.035157-7.292969-1.84375-10.722657zm-4.066407 9.671876c-.335937 1.902343-1.28125 3.351562-2.65625 4.074218-1.375.726563-3.101562.695313-4.867187-.101562-2.019531-.90625-3.785156-2.644532-4.972656-4.894532s-1.628907-4.691406-1.242188-6.867187c.339844-1.902344 1.28125-3.351563 2.660157-4.078125.664062-.351562 1.394531-.515625 2.160156-.515625 2.746094 0 5.886718 2.132813 7.675781 5.515625 1.191406 2.25 1.628906 4.6875 1.242187 6.867188zm0 0" fill="#3a312a"/><path d="m189.742188 111.769531c-5.285157-4.015625-12.105469-3.933593-15.230469.183594-3.128907 4.117187-1.382813 10.710937 3.898437 14.722656 5.285156 4.019531 12.105469 3.933594 15.234375-.183593 3.128907-4.113282 1.382813-10.707032-3.902343-14.722657zm0 0" fill="#87796f"/><path d="m191.558594 109.382812c-6.589844-5.007812-15.308594-4.671874-19.4375.757813-2.085938 2.742187-2.691406 6.289063-1.714844 9.984375.90625 3.421875 3.109375 6.597656 6.195312 8.941406 3.03125 2.308594 6.613282 3.570313 10.097657 3.570313h.175781c3.824219-.046875 7.074219-1.582031 9.160156-4.328125 4.121094-5.429688 2.113282-13.917969-4.476562-18.925782zm-.300782 15.296876c-.941406 1.238281-2.523437 1.933593-4.457031 1.957031h-.105469c-2.179687 0-4.472656-.832031-6.46875-2.34375-2.023437-1.542969-3.453124-3.566407-4.019531-5.707031-.496093-1.867188-.25-3.578126.691407-4.816407.992187-1.304687 2.652343-1.949219 4.542968-1.949219 2.085938 0 4.445313.785157 6.488282 2.335938 3.890624 2.957031 5.414062 7.777344 3.328124 10.523438zm0 0" fill="#3a312a"/><path d="m259.792969 87.660156c-4.574219-2.414062-10.792969.382813-13.894531 6.25-3.097657 5.871094-1.90625 12.582032 2.667968 15 4.570313 2.414063 10.792969-.382812 13.890625-6.25 3.101563-5.867187 1.90625-12.582031-2.664062-15zm0 0" fill="#87796f"/><path d="m266.957031 93.339844c-.671875-3.761719-2.71875-6.722656-5.761719-8.332032-3.046874-1.609374-6.644531-1.632812-10.132812-.0625-3.226562 1.449219-6.007812 4.136719-7.8125 7.5625-1.8125 3.429688-2.464844 7.234376-1.847656 10.722657.667968 3.761719 2.714844 6.722656 5.761718 8.332031 1.542969.816406 3.21875 1.199219 4.925782 1.199219 4.953125 0 10.140625-3.253907 13.023437-8.699219 1.808594-3.425781 2.460938-7.234375 1.84375-10.722656zm-7.152343 7.917968c-2.285157 4.324219-6.785157 6.609376-9.839844 5-1.375-.726562-2.316406-2.175781-2.65625-4.078124-.382813-2.175782.054687-4.617188 1.242187-6.867188 1.191407-2.25 2.957031-3.988281 4.972657-4.894531 1.765624-.792969 3.488281-.832031 4.867187-.101563 1.378906.726563 2.320313 2.171875 2.65625 4.078125.386719 2.175781-.054687 4.613281-1.242187 6.863281zm0 0" fill="#3a312a"/><path d="m279.925781 111.953125c-3.128906-4.117187-9.949219-4.199219-15.230469-.183594-5.285156 4.015625-7.03125 10.609375-3.902343 14.722657 3.128906 4.121093 9.945312 4.203124 15.230469.183593 5.285156-4.011719 7.03125-10.605469 3.902343-14.722656zm0 0" fill="#87796f"/><path d="m282.3125 110.140625c-2.082031-2.746094-5.335938-4.28125-9.15625-4.328125-3.605469-.054688-7.195312 1.226562-10.277344 3.570312-3.085937 2.34375-5.285156 5.519532-6.191406 8.941407-.976562 3.695312-.371094 7.242187 1.714844 9.984375 2.085937 2.746094 5.335937 4.28125 9.160156 4.328125h.171875c3.488281 0 7.066406-1.261719 10.101563-3.570313 3.085937-2.34375 5.285156-5.519531 6.191406-8.941406.980468-3.695312.371094-7.242188-1.714844-9.984375zm-4.082031 8.445313c-.566407 2.140624-1.996094 4.164062-4.023438 5.707031-2.027343 1.539062-4.375 2.328125-6.570312 2.34375-1.933594-.023438-3.515625-.71875-4.457031-1.957031-.941407-1.238282-1.1875-2.949219-.695313-4.816407.566406-2.140625 1.996094-4.164062 4.023437-5.707031 1.964844-1.492188 4.320313-2.34375 6.472657-2.34375h.101562c1.929688.023438 3.511719.71875 4.453125 1.957031s1.1875 2.949219.695313 4.816407zm0 0" fill="#3a312a"/><path d="m227.21875 341.304688c-1.65625 0-3 1.34375-3 3v102.109374c0 1.660157 1.34375 3 3 3s3-1.339843 3-3v-102.109374c0-1.65625-1.34375-3-3-3zm0 0" fill="#3a312a"/><path d="m417.71875 167.699219v43.582031c1.539062 2.359375 2.4375 5.160156 2.4375 8.179688v25.699218c0 3-.878906 5.820313-2.4375 8.179688v36.359375c1.539062 2.359375 2.4375 5.160156 2.4375 8.179687v25.699219c0 3.019531-.898438 5.820313-2.4375 8.179687v36.363282c1.539062 2.339844 2.4375 5.160156 2.4375 8.179687v25.699219c0 3.019531-.898438 5.820312-2.4375 8.179688v34.179687h30v-269.21875zm0 0" fill="#b9c239"/><path d="m75.089844 364.1875h-25.695313c-6.6875 0-12.109375 5.421875-12.109375 12.109375v25.695313c0 6.6875 5.421875 12.109374 12.109375 12.109374h25.695313c6.6875 0 12.109375-5.421874 12.109375-12.109374v-25.695313c0-6.6875-5.421875-12.109375-12.109375-12.109375zm0 0" fill="#8ac6dd"/><path d="m75.089844 361.1875h-25.695313c-8.332031 0-15.109375 6.777344-15.109375 15.109375v25.695313c0 8.328124 6.777344 15.109374 15.109375 15.109374h25.695313c8.332031 0 15.109375-6.777343 15.109375-15.109374v-25.695313c0-8.332031-6.777344-15.109375-15.109375-15.109375zm9.109375 40.804688c0 5.019531-4.085938 9.109374-9.109375 9.109374h-25.695313c-5.023437 0-9.109375-4.089843-9.109375-9.109374v-25.695313c0-5.023437 4.085938-9.109375 9.109375-9.109375h25.695313c5.023437 0 9.109375 4.085938 9.109375 9.109375zm0 0" fill="#3a312a"/><path d="m405.039062 364.1875h-25.691406c-6.691406 0-12.113281 5.421875-12.113281 12.109375v25.695313c0 6.6875 5.421875 12.109374 12.113281 12.109374h25.691406c6.6875 0 12.109376-5.421874 12.109376-12.109374v-25.695313c0-6.6875-5.421876-12.109375-12.109376-12.109375zm0 0" fill="#8ac6dd"/><path d="m405.039062 361.1875h-25.691406c-8.332031 0-15.113281 6.777344-15.113281 15.109375v25.695313c0 8.328124 6.78125 15.109374 15.113281 15.109374h25.691406c8.332032 0 15.109376-6.777343 15.109376-15.109374v-25.695313c0-8.332031-6.777344-15.109375-15.109376-15.109375zm9.109376 40.804688c0 5.019531-4.085938 9.109374-9.109376 9.109374h-25.691406c-5.027344 0-9.113281-4.089843-9.113281-9.109374v-25.695313c0-5.023437 4.085937-9.109375 9.113281-9.109375h25.691406c5.023438 0 9.109376 4.085938 9.109376 9.109375zm0 0" fill="#3a312a"/></svg>